<svg viewBox="0 0 100 100" xmlns="http://www.w3.org/2000/svg">
  <rect width="100" height="100" rx="20" fill="#6366f1"/>
  <!-- Cat face -->
  <circle cx="50" cy="55" r="22" fill="white" opacity="0.9"/>
  <!-- Ears -->
  <polygon points="30,38 38,55 22,55" fill="white" opacity="0.9"/>
  <polygon points="70,38 78,55 62,55" fill="white" opacity="0.9"/>
  <polygon points="30,40 36,53 26,53" fill="#f0abfc"/>
  <polygon points="70,40 74,53 64,53" fill="#f0abfc"/>
  <!-- Eyes -->
  <ellipse cx="42" cy="52" rx="4" ry="5" fill="#1e1b4b"/>
  <ellipse cx="58" cy="52" rx="4" ry="5" fill="#1e1b4b"/>
  <circle cx="43" cy="51" r="1.5" fill="white"/>
  <circle cx="59" cy="51" r="1.5" fill="white"/>
  <!-- Nose -->
  <ellipse cx="50" cy="60" rx="3" ry="2" fill="#f0abfc"/>
  <!-- Whiskers -->
  <line x1="28" y1="60" x2="44" y2="61" stroke="#6366f1" stroke-width="1" opacity="0.5"/>
  <line x1="28" y1="63" x2="44" y2="63" stroke="#6366f1" stroke-width="1" opacity="0.5"/>
  <line x1="56" y1="61" x2="72" y2="60" stroke="#6366f1" stroke-width="1" opacity="0.5"/>
  <line x1="56" y1="63" x2="72" y2="63" stroke="#6366f1" stroke-width="1" opacity="0.5"/>
</svg>
